<?xml version="1.0" encoding="utf-8"?>
<!-- Generator: Adobe Illustrator 22.0.1, SVG Export Plug-In . SVG Version: 6.00 Build 0)  -->
<svg version="1.1"
	 id="svg8" inkscape:version="1.0 (4035a4f, 2020-05-01)" sodipodi:docname="favicon.svg" xmlns:cc="http://creativecommons.org/ns#" xmlns:dc="http://purl.org/dc/elements/1.1/" xmlns:inkscape="http://www.inkscape.org/namespaces/inkscape" xmlns:rdf="http://www.w3.org/1999/02/22-rdf-syntax-ns#" xmlns:sodipodi="http://sodipodi.sourceforge.net/DTD/sodipodi-0.dtd" xmlns:svg="http://www.w3.org/2000/svg"
	 xmlns="http://www.w3.org/2000/svg" xmlns:xlink="http://www.w3.org/1999/xlink" x="0px" y="0px" width="180px" height="180px"
	 viewBox="0 0 180 180" style="enable-background:new 0 0 180 180;" xml:space="preserve">
<style type="text/css">
	.st0{fill:#D44D3B;}
	.st1{fill:#FFFFFF;}
</style>
<rect x="-5.1" y="-5.5" class="st0" width="189.8" height="189.5"/>
<g>
	<g>
		<path class="st1" d="M56.8,65.2c0,3.6-0.7,6.7-2.1,9.3c-1.4,2.6-3.2,4.9-5.6,6.6c-2.3,1.8-5.1,3.1-8.2,4c-3.2,0.9-6.5,1.3-10,1.3
			c-2.4,0-4.7-0.1-6.9-0.4c-2.2-0.3-4.4-0.8-6.4-1.5c-2.1-0.7-4.1-1.7-6.1-3c-2-1.3-4-2.9-6-4.8l8.3-12.1c2.7,2.4,5.5,4.2,8.3,5.3
			c2.8,1.1,5.6,1.7,8.4,1.7c2.1,0,3.8-0.2,5.1-0.6c1.4-0.4,2.5-0.9,3.3-1.6c0.8-0.7,1.4-1.4,1.8-2.1c0.3-0.8,0.5-1.5,0.5-2.2
			c0-1-0.2-1.9-0.7-2.7c-0.5-0.8-1.3-1.5-2.4-2.2c-1.1-0.7-2.6-1.4-4.4-2.1c-1.8-0.7-4.1-1.4-6.9-2.3c-3-0.9-5.6-1.9-8-3
			c-2.3-1.1-4.3-2.5-5.8-4.1c-1.6-1.6-2.8-3.5-3.6-5.7c-0.8-2.2-1.2-4.8-1.2-7.9c0-3.2,0.6-6.1,1.7-8.7c1.2-2.6,2.8-4.8,4.9-6.6
			c2.1-1.8,4.6-3.2,7.5-4.2c2.9-1,6.1-1.4,9.5-1.4c3.7,0,7.4,0.4,11.1,1.1c3.6,0.8,7.4,2.6,11.4,5.5l-6.6,13.2
			c-3.1-2.1-5.8-3.5-8.4-4c-2.5-0.5-5.1-0.8-7.6-0.8c-2.4,0-4.3,0.4-5.8,1.3c-1.5,0.9-2.2,2.3-2.2,4.3c0,0.9,0.2,1.7,0.7,2.4
			s1.3,1.4,2.4,2.1c1.1,0.7,2.6,1.4,4.4,2c1.8,0.7,4,1.4,6.6,2.2c4.1,1.2,7.4,2.6,9.9,4.2c2.5,1.5,4.4,3.2,5.8,5
			c1.3,1.8,2.2,3.8,2.7,5.9C56.5,60.8,56.8,63,56.8,65.2z"/>
		<path class="st1" d="M91.6,62.1l6.6-25.6l5.6-21.4h15.5L98.8,86H83.5l-20.7-71h15.9l5.8,21.8L91,62.1H91.6z"/>
		<path class="st1" d="M168,81.2c-1.8,1.3-3.7,2.4-5.7,3.2c-1.9,0.8-3.9,1.4-5.8,1.8s-3.7,0.5-5.4,0.5c-2.9,0-5.9-0.4-8.9-1.3
			c-3-0.9-5.7-2.3-8.1-4.1c-2.4-1.9-4.4-4.2-5.9-7.1c-1.5-2.8-2.3-6.2-2.3-10.1V37.6c0-3.9,0.7-7.3,2.2-10.2
			c1.5-2.9,3.4-5.3,5.8-7.3c2.4-2,5.1-3.4,8.1-4.4c3-1,6.1-1.4,9.2-1.4c3.8,0,7.6,0.6,11.5,1.8c3.8,1.2,7,3,9.6,5.5l-7.2,12.7
			c-2.1-2-4.4-3.3-6.8-4c-2.4-0.7-4.6-1-6.7-1c-1.2,0-2.5,0.2-3.7,0.6c-1.2,0.4-2.4,1-3.5,1.9c-1.1,0.9-1.9,2-2.6,3.4
			c-0.7,1.4-1,3.1-1,5.2v20.1c0,2.1,0.3,3.8,0.9,5.2c0.6,1.4,1.4,2.5,2.4,3.4c1,0.9,2.1,1.5,3.3,1.9c1.2,0.4,2.4,0.6,3.7,0.6
			c1.1,0,2.3-0.2,3.5-0.5c1.2-0.3,2.4-1,3.4-2v-9.6h-8.9V45.9h23.8v30.4C171.5,78.2,169.8,79.9,168,81.2z"/>
	</g>
</g>
<g>
	<path class="st1" d="M34,99.2c3.6,0,6.6,0.6,9.2,1.9c2.5,1.3,4.6,2.9,6.2,5c1.6,2.1,2.8,4.5,3.5,7.1s1.1,5.4,1.1,8.2
		c0,2.8-0.4,5.6-1.3,8.2c-0.9,2.6-2.2,5-4,7.1c-1.8,2.1-3.9,3.8-6.4,5c-2.5,1.3-5.4,1.9-8.7,1.9H20.8v25.5H6.1V99.2H34z M20.8,129.4
		h10.8c2.8,0,4.7-0.8,5.9-2.3c1.2-1.5,1.8-3.4,1.8-5.6c0-2.2-0.6-4.1-1.7-5.6c-1.1-1.5-3.1-2.3-6-2.3H20.8V129.4z"/>
	<path class="st1" d="M76.9,129v40.3H62.2V99.2h13.2l10.6,17l14,23.3h0.3V99.2H115v70.1h-13.2L88.7,148L77.4,129H76.9z"/>
	<path class="st1" d="M169.5,164.6c-1.8,1.3-3.7,2.4-5.6,3.2c-1.9,0.8-3.8,1.4-5.7,1.7c-1.9,0.3-3.7,0.5-5.4,0.5
		c-2.9,0-5.8-0.4-8.8-1.3s-5.6-2.2-8-4.1c-2.4-1.8-4.4-4.2-5.9-7c-1.5-2.8-2.3-6.2-2.3-10v-26.2c0-3.9,0.7-7.2,2.2-10.1
		c1.4-2.8,3.4-5.2,5.7-7.2c2.4-1.9,5-3.4,8-4.3c3-0.9,6-1.4,9.1-1.4c3.8,0,7.5,0.6,11.3,1.8c3.8,1.2,6.9,3,9.5,5.4l-7.1,12.5
		c-2.1-2-4.3-3.3-6.7-3.9c-2.4-0.6-4.6-1-6.6-1c-1.2,0-2.5,0.2-3.7,0.6c-1.2,0.4-2.4,1-3.4,1.9c-1,0.8-1.9,2-2.5,3.4
		c-0.6,1.4-1,3.1-1,5.1v19.8c0,2,0.3,3.7,0.9,5.1c0.6,1.4,1.4,2.5,2.4,3.4c1,0.8,2.1,1.5,3.3,1.9c1.2,0.4,2.4,0.6,3.7,0.6
		c1.1,0,2.3-0.2,3.5-0.5c1.2-0.3,2.3-1,3.4-1.9v-9.5h-8.8v-13.6h23.5v30C173,161.6,171.3,163.3,169.5,164.6z"/>
</g>
</svg>
